<svg width="64" height="64" viewBox="0 0 64 64" fill="none" xmlns="http://www.w3.org/2000/svg">
  <!-- Background Circle with Gradient -->
  <circle cx="32" cy="32" r="30" fill="url(#backgroundGradient)" stroke="url(#borderGradient)" stroke-width="2"/>
  
  <!-- Brain/Mind Symbol (Left Side - Donna) -->
  <g transform="translate(12, 16)">
    <!-- Brain outline -->
    <path d="M8 4C10.5 2 13.5 2 16 4C18 2.5 20.5 3 22 5C23 3.5 25.5 4 26 6C26.5 4.5 28.5 5 29 7C29.5 9 28.5 11 27 12C28 13.5 27.5 15.5 26 16C24.5 17 22.5 16.5 21 15C19.5 16.5 17 16 15.5 14.5C14 16 11.5 15.5 10.5 14C9 15.5 6.5 15 6 13C5.5 15 3.5 14.5 3 12C2.5 10 3.5 8 5 7C3.5 5.5 4 3.5 5.5 3C7 1.5 9 2 10 3.5C10.5 2 12.5 2.5 13 4" 
          fill="url(#therapyGradient)" 
          stroke="#8b5cf6" 
          stroke-width="1.5" 
          stroke-linecap="round" 
          stroke-linejoin="round"/>
    <!-- Neural connections -->
    <circle cx="10" cy="8" r="1.5" fill="#ec4899" opacity="0.8"/>
    <circle cx="15" cy="6" r="1" fill="#a855f7" opacity="0.8"/>
    <circle cx="18" cy="10" r="1.2" fill="#ec4899" opacity="0.8"/>
    <circle cx="12" cy="12" r="1" fill="#a855f7" opacity="0.8"/>
    <!-- Connection lines -->
    <line x1="10" y1="8" x2="15" y2="6" stroke="#8b5cf6" stroke-width="0.8" opacity="0.6"/>
    <line x1="15" y1="6" x2="18" y2="10" stroke="#ec4899" stroke-width="0.8" opacity="0.6"/>
    <line x1="18" y1="10" x2="12" y2="12" stroke="#a855f7" stroke-width="0.8" opacity="0.6"/>
  </g>
  
  <!-- Career/Growth Symbol (Right Side - Buddy) -->
  <g transform="translate(36, 18)">
    <!-- Upward trending arrow/chart -->
    <path d="M2 14 L6 10 L10 12 L14 6 L18 8 L22 2" 
          stroke="url(#careerGradient)" 
          stroke-width="2.5" 
          stroke-linecap="round" 
          stroke-linejoin="round" 
          fill="none"/>
    <!-- Arrow head -->
    <path d="M18 2 L22 2 L22 6" 
          stroke="#0ea5e9" 
          stroke-width="2" 
          stroke-linecap="round" 
          stroke-linejoin="round" 
          fill="none"/>
    <!-- Data points -->
    <circle cx="6" cy="10" r="1.5" fill="#3b82f6"/>
    <circle cx="10" cy="12" r="1.5" fill="#06b6d4"/>
    <circle cx="14" cy="6" r="1.5" fill="#0ea5e9"/>
    <circle cx="18" cy="8" r="1.5" fill="#3b82f6"/>
    <!-- Success indicators -->
    <circle cx="20" cy="4" r="1" fill="#10b981" opacity="0.8"/>
    <circle cx="16" cy="5" r="0.8" fill="#06d6a0" opacity="0.8"/>
  </g>
  
  <!-- Central AI Core -->
  <g transform="translate(28, 28)">
    <!-- Central circle representing AI -->
    <circle cx="4" cy="4" r="6" fill="url(#aiCoreGradient)" stroke="white" stroke-width="1.5"/>
    <!-- AI symbol -->
    <text x="4" y="7" text-anchor="middle" font-family="Arial, sans-serif" font-size="8" font-weight="bold" fill="white">AI</text>
    <!-- Pulsing ring -->
    <circle cx="4" cy="4" r="8" fill="none" stroke="url(#pulseGradient)" stroke-width="1" opacity="0.6">
      <animate attributeName="r" values="6;10;6" dur="2s" repeatCount="indefinite"/>
      <animate attributeName="opacity" values="0.8;0.2;0.8" dur="2s" repeatCount="indefinite"/>
    </circle>
  </g>
  
  <!-- Connecting Lines -->
  <line x1="20" y1="24" x2="28" y2="32" stroke="url(#connectionGradient)" stroke-width="1.5" opacity="0.7"/>
  <line x1="44" y1="26" x2="36" y2="32" stroke="url(#connectionGradient)" stroke-width="1.5" opacity="0.7"/>
  
  <!-- Floating Particles -->
  <circle cx="16" cy="12" r="1" fill="#ec4899" opacity="0.6">
    <animate attributeName="cy" values="12;8;12" dur="3s" repeatCount="indefinite"/>
  </circle>
  <circle cx="48" cy="14" r="1" fill="#0ea5e9" opacity="0.6">
    <animate attributeName="cy" values="14;10;14" dur="2.5s" repeatCount="indefinite"/>
  </circle>
  <circle cx="32" cy="8" r="0.8" fill="#10b981" opacity="0.5">
    <animate attributeName="cy" values="8;12;8" dur="4s" repeatCount="indefinite"/>
  </circle>
  
  <!-- Gradients -->
  <defs>
    <linearGradient id="backgroundGradient" x1="0%" y1="0%" x2="100%" y2="100%">
      <stop offset="0%" style="stop-color:#f8fafc;stop-opacity:1" />
      <stop offset="50%" style="stop-color:#f1f5f9;stop-opacity:1" />
      <stop offset="100%" style="stop-color:#e2e8f0;stop-opacity:1" />
    </linearGradient>
    
    <linearGradient id="borderGradient" x1="0%" y1="0%" x2="100%" y2="100%">
      <stop offset="0%" style="stop-color:#8b5cf6;stop-opacity:0.8" />
      <stop offset="50%" style="stop-color:#06b6d4;stop-opacity:0.8" />
      <stop offset="100%" style="stop-color:#3b82f6;stop-opacity:0.8" />
    </linearGradient>
    
    <linearGradient id="therapyGradient" x1="0%" y1="0%" x2="100%" y2="100%">
      <stop offset="0%" style="stop-color:#a855f7;stop-opacity:0.9" />
      <stop offset="100%" style="stop-color:#ec4899;stop-opacity:0.9" />
    </linearGradient>
    
    <linearGradient id="careerGradient" x1="0%" y1="0%" x2="100%" y2="100%">
      <stop offset="0%" style="stop-color:#3b82f6;stop-opacity:1" />
      <stop offset="50%" style="stop-color:#06b6d4;stop-opacity:1" />
      <stop offset="100%" style="stop-color:#0ea5e9;stop-opacity:1" />
    </linearGradient>
    
    <radialGradient id="aiCoreGradient" cx="50%" cy="50%" r="50%">
      <stop offset="0%" style="stop-color:#10b981;stop-opacity:1" />
      <stop offset="100%" style="stop-color:#059669;stop-opacity:1" />
    </radialGradient>
    
    <linearGradient id="pulseGradient" x1="0%" y1="0%" x2="100%" y2="100%">
      <stop offset="0%" style="stop-color:#10b981;stop-opacity:0.8" />
      <stop offset="100%" style="stop-color:#06d6a0;stop-opacity:0.4" />
    </linearGradient>
    
    <linearGradient id="connectionGradient" x1="0%" y1="0%" x2="100%" y2="100%">
      <stop offset="0%" style="stop-color:#8b5cf6;stop-opacity:0.6" />
      <stop offset="100%" style="stop-color:#3b82f6;stop-opacity:0.6" />
    </linearGradient>
  </defs>
</svg>